<mxfile host="Electron" modified="2025-07-04T11:03:52.213Z" agent="Mozilla/5.0 (Windows NT 10.0; Win64; x64) AppleWebKit/537.36 (KHTML, like Gecko) draw.io/24.4.8 Chrome/124.0.6367.207 Electron/30.0.6 Safari/537.36" etag="d4hYQfjExxI_AYqNrXvc" version="24.4.8" type="device">
  <diagram name="Page-1" id="aD9ww4j-pX8oiKXvRPIh">
    <mxGraphModel dx="1276" dy="614" grid="0" gridSize="10" guides="1" tooltips="1" connect="1" arrows="1" fold="1" page="1" pageScale="1" pageWidth="850" pageHeight="1100" math="0" shadow="0">
      <root>
        <mxCell id="0" />
        <mxCell id="1" parent="0" />
        <mxCell id="-Qy-EkNIOK-WEutB9DYL-7" value="" style="edgeStyle=orthogonalEdgeStyle;rounded=0;orthogonalLoop=1;jettySize=auto;html=1;" edge="1" parent="1" source="-Qy-EkNIOK-WEutB9DYL-1" target="-Qy-EkNIOK-WEutB9DYL-6">
          <mxGeometry relative="1" as="geometry" />
        </mxCell>
        <mxCell id="-Qy-EkNIOK-WEutB9DYL-1" value="MPG-Prediction-System-for-Cars" style="rounded=1;whiteSpace=wrap;html=1;" vertex="1" parent="1">
          <mxGeometry x="516" y="173" width="120" height="60" as="geometry" />
        </mxCell>
        <mxCell id="-Qy-EkNIOK-WEutB9DYL-10" value="" style="edgeStyle=orthogonalEdgeStyle;rounded=0;orthogonalLoop=1;jettySize=auto;html=1;" edge="1" parent="1" source="-Qy-EkNIOK-WEutB9DYL-2" target="-Qy-EkNIOK-WEutB9DYL-9">
          <mxGeometry relative="1" as="geometry" />
        </mxCell>
        <mxCell id="-Qy-EkNIOK-WEutB9DYL-2" value="Xác định target và các feature" style="whiteSpace=wrap;html=1;rounded=1;" vertex="1" parent="1">
          <mxGeometry x="114" y="173" width="120" height="60" as="geometry" />
        </mxCell>
        <mxCell id="-Qy-EkNIOK-WEutB9DYL-8" value="" style="edgeStyle=orthogonalEdgeStyle;rounded=0;orthogonalLoop=1;jettySize=auto;html=1;" edge="1" parent="1" source="-Qy-EkNIOK-WEutB9DYL-6" target="-Qy-EkNIOK-WEutB9DYL-2">
          <mxGeometry relative="1" as="geometry" />
        </mxCell>
        <mxCell id="-Qy-EkNIOK-WEutB9DYL-6" value="Làm report.html để tổng quát data" style="whiteSpace=wrap;html=1;rounded=1;" vertex="1" parent="1">
          <mxGeometry x="305" y="177" width="120" height="60" as="geometry" />
        </mxCell>
        <mxCell id="-Qy-EkNIOK-WEutB9DYL-12" value="" style="edgeStyle=orthogonalEdgeStyle;rounded=0;orthogonalLoop=1;jettySize=auto;html=1;" edge="1" parent="1" source="-Qy-EkNIOK-WEutB9DYL-9" target="-Qy-EkNIOK-WEutB9DYL-11">
          <mxGeometry relative="1" as="geometry" />
        </mxCell>
        <mxCell id="-Qy-EkNIOK-WEutB9DYL-9" value="Chia train test&amp;nbsp;" style="whiteSpace=wrap;html=1;rounded=1;" vertex="1" parent="1">
          <mxGeometry x="116" y="314" width="120" height="60" as="geometry" />
        </mxCell>
        <mxCell id="-Qy-EkNIOK-WEutB9DYL-14" value="" style="edgeStyle=orthogonalEdgeStyle;rounded=0;orthogonalLoop=1;jettySize=auto;html=1;" edge="1" parent="1" source="-Qy-EkNIOK-WEutB9DYL-11" target="-Qy-EkNIOK-WEutB9DYL-13">
          <mxGeometry relative="1" as="geometry" />
        </mxCell>
        <mxCell id="-Qy-EkNIOK-WEutB9DYL-11" value="Phân loại feature để xử lí" style="whiteSpace=wrap;html=1;rounded=1;" vertex="1" parent="1">
          <mxGeometry x="110" y="459" width="120" height="60" as="geometry" />
        </mxCell>
        <mxCell id="-Qy-EkNIOK-WEutB9DYL-16" value="" style="edgeStyle=orthogonalEdgeStyle;rounded=0;orthogonalLoop=1;jettySize=auto;html=1;" edge="1" parent="1" source="-Qy-EkNIOK-WEutB9DYL-13" target="-Qy-EkNIOK-WEutB9DYL-15">
          <mxGeometry relative="1" as="geometry" />
        </mxCell>
        <mxCell id="-Qy-EkNIOK-WEutB9DYL-13" value="Chọn model thịch hợp" style="whiteSpace=wrap;html=1;rounded=1;" vertex="1" parent="1">
          <mxGeometry x="165" y="595" width="120" height="60" as="geometry" />
        </mxCell>
        <mxCell id="-Qy-EkNIOK-WEutB9DYL-18" value="" style="edgeStyle=orthogonalEdgeStyle;rounded=0;orthogonalLoop=1;jettySize=auto;html=1;" edge="1" parent="1" source="-Qy-EkNIOK-WEutB9DYL-15" target="-Qy-EkNIOK-WEutB9DYL-17">
          <mxGeometry relative="1" as="geometry" />
        </mxCell>
        <mxCell id="-Qy-EkNIOK-WEutB9DYL-15" value="Chọn tham số model để huấn luyện" style="whiteSpace=wrap;html=1;rounded=1;" vertex="1" parent="1">
          <mxGeometry x="365" y="595" width="120" height="60" as="geometry" />
        </mxCell>
        <mxCell id="-Qy-EkNIOK-WEutB9DYL-25" value="" style="edgeStyle=orthogonalEdgeStyle;rounded=0;orthogonalLoop=1;jettySize=auto;html=1;" edge="1" parent="1" source="-Qy-EkNIOK-WEutB9DYL-17" target="-Qy-EkNIOK-WEutB9DYL-24">
          <mxGeometry relative="1" as="geometry" />
        </mxCell>
        <mxCell id="-Qy-EkNIOK-WEutB9DYL-17" value="Tạo báo cáo" style="whiteSpace=wrap;html=1;rounded=1;" vertex="1" parent="1">
          <mxGeometry x="568" y="595" width="120" height="60" as="geometry" />
        </mxCell>
        <mxCell id="-Qy-EkNIOK-WEutB9DYL-26" value="" style="edgeStyle=orthogonalEdgeStyle;rounded=0;orthogonalLoop=1;jettySize=auto;html=1;" edge="1" parent="1" source="-Qy-EkNIOK-WEutB9DYL-19" target="-Qy-EkNIOK-WEutB9DYL-24">
          <mxGeometry relative="1" as="geometry" />
        </mxCell>
        <mxCell id="-Qy-EkNIOK-WEutB9DYL-19" value="deploy qua gradio" style="whiteSpace=wrap;html=1;rounded=1;" vertex="1" parent="1">
          <mxGeometry x="331" y="455" width="120" height="60" as="geometry" />
        </mxCell>
        <mxCell id="-Qy-EkNIOK-WEutB9DYL-22" value="" style="edgeStyle=orthogonalEdgeStyle;rounded=0;orthogonalLoop=1;jettySize=auto;html=1;" edge="1" parent="1" source="-Qy-EkNIOK-WEutB9DYL-21" target="-Qy-EkNIOK-WEutB9DYL-19">
          <mxGeometry relative="1" as="geometry" />
        </mxCell>
        <mxCell id="-Qy-EkNIOK-WEutB9DYL-21" value="User" style="rounded=1;whiteSpace=wrap;html=1;" vertex="1" parent="1">
          <mxGeometry x="566" y="336" width="120" height="60" as="geometry" />
        </mxCell>
        <mxCell id="-Qy-EkNIOK-WEutB9DYL-29" value="" style="edgeStyle=orthogonalEdgeStyle;rounded=0;orthogonalLoop=1;jettySize=auto;html=1;" edge="1" parent="1" source="-Qy-EkNIOK-WEutB9DYL-24" target="-Qy-EkNIOK-WEutB9DYL-21">
          <mxGeometry relative="1" as="geometry" />
        </mxCell>
        <mxCell id="-Qy-EkNIOK-WEutB9DYL-24" value="Model" style="whiteSpace=wrap;html=1;rounded=1;" vertex="1" parent="1">
          <mxGeometry x="568" y="455" width="120" height="60" as="geometry" />
        </mxCell>
      </root>
    </mxGraphModel>
  </diagram>
</mxfile>
